<?xml version="1.0" standalone="no"?>
<!DOCTYPE svg PUBLIC "-//W3C//DTD SVG 20010904//EN"
 "http://www.w3.org/TR/2001/REC-SVG-20010904/DTD/svg10.dtd">
<svg version="1.0" xmlns="http://www.w3.org/2000/svg"
 width="239.000000pt" height="239.000000pt" viewBox="0 0 239.000000 239.000000"
 preserveAspectRatio="xMidYMid meet">
<metadata>
Created by potrace 1.14, written by Peter Selinger 2001-2017
</metadata>
<g transform="translate(0.000000,239.000000) scale(0.100000,-0.100000)"
fill="#000000" stroke="none">
<path d="M1519 1930 l-215 -108 -68 -144 c-37 -78 -145 -309 -239 -513 l-173
-370 -373 -6 -374 -5 -29 -33 c-16 -17 -26 -36 -24 -40 3 -4 170 -11 372 -14
201 -3 368 -8 371 -11 3 -3 -6 -32 -21 -65 -33 -73 -34 -120 -3 -148 13 -12
92 -42 192 -72 l171 -52 299 21 c524 37 556 39 760 55 110 8 206 15 214 15 23
0 -14 35 -57 53 -50 22 -435 69 -547 67 -49 -1 -204 -7 -344 -13 -168 -8 -255
-9 -257 -2 -2 6 4 39 14 75 l17 65 515 -4 c355 -2 524 0 543 8 21 8 27 17 27
40 0 24 -121 348 -334 896 -155 397 -164 416 -203 414 -10 0 -115 -49 -234
-109z m62 -728 c88 -215 104 -293 75 -351 -19 -35 -52 -50 -140 -61 -98 -13
-266 -13 -266 0 0 9 166 401 230 544 27 59 21 67 101 -132z"/>
</g>
</svg>
