{
    "asset" : {
        "copyright" : "Foribus B.V.",
        "generator" : "Khronos glTF Blender I/O v1.8.19",
        "version" : "2.0"
    },
    "scene" : 0,
    "scenes" : [
        {
            "name" : "Scene",
            "nodes" : [
                0,
                1,
                2
            ]
        }
    ],
    "nodes" : [
        {
            "mesh" : 0,
            "name" : "Plane",
            "rotation" : [
                0,
                0,
                0.037538886070251465,
                0.999295175075531
            ],
            "translation" : [
                -0.02137870341539383,
                0,
                0.00014925393043085933
            ]
        },
        {
            "mesh" : 1,
            "name" : "Text",
            "scale" : [
                1.189416527748108,
                1.189416527748108,
                1.414046049118042
            ],
            "translation" : [
                -4.316203594207764,
                -0.011239861138164997,
                0.33651095628738403
            ]
        },
        {
            "mesh" : 2,
            "name" : "EnterANewReality",
            "scale" : [
                0.22176575660705566,
                0.22176575660705566,
                0.22176575660705566
            ],
            "translation" : [
                -4.2441301345825195,
                -0.010957601480185986,
                0.6832082867622375
            ]
        }
    ],
    "animations" : [
        {
            "channels" : [
                {
                    "sampler" : 0,
                    "target" : {
                        "node" : 0,
                        "path" : "translation"
                    }
                },
                {
                    "sampler" : 1,
                    "target" : {
                        "node" : 0,
                        "path" : "rotation"
                    }
                },
                {
                    "sampler" : 2,
                    "target" : {
                        "node" : 0,
                        "path" : "scale"
                    }
                },
                {
                    "sampler" : 3,
                    "target" : {
                        "node" : 1,
                        "path" : "translation"
                    }
                },
                {
                    "sampler" : 4,
                    "target" : {
                        "node" : 1,
                        "path" : "rotation"
                    }
                },
                {
                    "sampler" : 5,
                    "target" : {
                        "node" : 1,
                        "path" : "scale"
                    }
                },
                {
                    "sampler" : 6,
                    "target" : {
                        "node" : 2,
                        "path" : "translation"
                    }
                },
                {
                    "sampler" : 7,
                    "target" : {
                        "node" : 2,
                        "path" : "rotation"
                    }
                },
                {
                    "sampler" : 8,
                    "target" : {
                        "node" : 2,
                        "path" : "scale"
                    }
                }
            ],
            "name" : "Animation",
            "samplers" : [
                {
                    "input" : 12,
                    "interpolation" : "LINEAR",
                    "output" : 13
                },
                {
                    "input" : 12,
                    "interpolation" : "LINEAR",
                    "output" : 14
                },
                {
                    "input" : 12,
                    "interpolation" : "LINEAR",
                    "output" : 15
                },
                {
                    "input" : 16,
                    "interpolation" : "STEP",
                    "output" : 17
                },
                {
                    "input" : 16,
                    "interpolation" : "STEP",
                    "output" : 18
                },
                {
                    "input" : 16,
                    "interpolation" : "STEP",
                    "output" : 19
                },
                {
                    "input" : 16,
                    "interpolation" : "STEP",
                    "output" : 20
                },
                {
                    "input" : 16,
                    "interpolation" : "STEP",
                    "output" : 21
                },
                {
                    "input" : 16,
                    "interpolation" : "STEP",
                    "output" : 22
                }
            ]
        }
    ],
    "materials" : [
        {
            "doubleSided" : true,
            "name" : "Material.001",
            "pbrMetallicRoughness" : {
                "baseColorFactor" : [
                    0,
                    0.42681804299354553,
                    1,
                    1
                ],
                "metallicFactor" : 0,
                "roughnessFactor" : 0.5
            }
        },
        {
            "doubleSided" : true,
            "name" : "Black",
            "pbrMetallicRoughness" : {
                "baseColorFactor" : [
                    0,
                    0,
                    0,
                    1
                ],
                "metallicFactor" : 0,
                "roughnessFactor" : 0.5
            }
        }
    ],
    "meshes" : [
        {
            "name" : "Plane",
            "primitives" : [
                {
                    "attributes" : {
                        "POSITION" : 0,
                        "NORMAL" : 1,
                        "TEXCOORD_0" : 2
                    },
                    "indices" : 3,
                    "material" : 0
                }
            ]
        },
        {
            "name" : "Text",
            "primitives" : [
                {
                    "attributes" : {
                        "POSITION" : 4,
                        "NORMAL" : 5,
                        "TEXCOORD_0" : 6
                    },
                    "indices" : 7,
                    "material" : 1
                }
            ]
        },
        {
            "name" : "Text.002",
            "primitives" : [
                {
                    "attributes" : {
                        "POSITION" : 8,
                        "NORMAL" : 9,
                        "TEXCOORD_0" : 10
                    },
                    "indices" : 11,
                    "material" : 1
                }
            ]
        }
    ],
    "accessors" : [
        {
            "bufferView" : 0,
            "componentType" : 5126,
            "count" : 261,
            "max" : [
                1,
                1,
                1
            ],
            "min" : [
                -1.6478729248046875,
                -1.6315948963165283,
                -0.8814502358436584
            ],
            "type" : "VEC3"
        },
        {
            "bufferView" : 1,
            "componentType" : 5126,
            "count" : 261,
            "type" : "VEC3"
        },
        {
            "bufferView" : 2,
            "componentType" : 5126,
            "count" : 261,
            "type" : "VEC2"
        },
        {
            "bufferView" : 3,
            "componentType" : 5123,
            "count" : 1290,
            "type" : "SCALAR"
        },
        {
            "bufferView" : 4,
            "componentType" : 5126,
            "count" : 699,
            "max" : [
                2.9810001850128174,
                0,
                0.009000000543892384
            ],
            "min" : [
                0.07600000500679016,
                0,
                -0.6820000410079956
            ],
            "type" : "VEC3"
        },
        {
            "bufferView" : 5,
            "componentType" : 5126,
            "count" : 699,
            "type" : "VEC3"
        },
        {
            "bufferView" : 6,
            "componentType" : 5126,
            "count" : 699,
            "type" : "VEC2"
        },
        {
            "bufferView" : 7,
            "componentType" : 5123,
            "count" : 1473,
            "type" : "SCALAR"
        },
        {
            "bufferView" : 8,
            "componentType" : 5126,
            "count" : 423,
            "max" : [
                10.532000541687012,
                0,
                0.006000000052154064
            ],
            "min" : [
                0.07500000298023224,
                0,
                -0.6860000491142273
            ],
            "type" : "VEC3"
        },
        {
            "bufferView" : 9,
            "componentType" : 5126,
            "count" : 423,
            "type" : "VEC3"
        },
        {
            "bufferView" : 10,
            "componentType" : 5126,
            "count" : 423,
            "type" : "VEC2"
        },
        {
            "bufferView" : 11,
            "componentType" : 5123,
            "count" : 906,
            "type" : "SCALAR"
        },
        {
            "bufferView" : 12,
            "componentType" : 5126,
            "count" : 161,
            "max" : [
                6.666666666666667
            ],
            "min" : [
                0
            ],
            "type" : "SCALAR"
        },
        {
            "bufferView" : 13,
            "componentType" : 5126,
            "count" : 161,
            "type" : "VEC3"
        },
        {
            "bufferView" : 14,
            "componentType" : 5126,
            "count" : 161,
            "type" : "VEC4"
        },
        {
            "bufferView" : 15,
            "componentType" : 5126,
            "count" : 161,
            "type" : "VEC3"
        },
        {
            "bufferView" : 16,
            "componentType" : 5126,
            "count" : 1,
            "max" : [
                0.8333333333333334
            ],
            "min" : [
                0.8333333333333334
            ],
            "type" : "SCALAR"
        },
        {
            "bufferView" : 17,
            "componentType" : 5126,
            "count" : 1,
            "type" : "VEC3"
        },
        {
            "bufferView" : 18,
            "componentType" : 5126,
            "count" : 1,
            "type" : "VEC4"
        },
        {
            "bufferView" : 19,
            "componentType" : 5126,
            "count" : 1,
            "type" : "VEC3"
        },
        {
            "bufferView" : 20,
            "componentType" : 5126,
            "count" : 1,
            "type" : "VEC3"
        },
        {
            "bufferView" : 21,
            "componentType" : 5126,
            "count" : 1,
            "type" : "VEC4"
        },
        {
            "bufferView" : 22,
            "componentType" : 5126,
            "count" : 1,
            "type" : "VEC3"
        }
    ],
    "bufferViews" : [
        {
            "buffer" : 0,
            "byteLength" : 3132,
            "byteOffset" : 0
        },
        {
            "buffer" : 0,
            "byteLength" : 3132,
            "byteOffset" : 3132
        },
        {
            "buffer" : 0,
            "byteLength" : 2088,
            "byteOffset" : 6264
        },
        {
            "buffer" : 0,
            "byteLength" : 2580,
            "byteOffset" : 8352
        },
        {
            "buffer" : 0,
            "byteLength" : 8388,
            "byteOffset" : 10932
        },
        {
            "buffer" : 0,
            "byteLength" : 8388,
            "byteOffset" : 19320
        },
        {
            "buffer" : 0,
            "byteLength" : 5592,
            "byteOffset" : 27708
        },
        {
            "buffer" : 0,
            "byteLength" : 2946,
            "byteOffset" : 33300
        },
        {
            "buffer" : 0,
            "byteLength" : 5076,
            "byteOffset" : 36248
        },
        {
            "buffer" : 0,
            "byteLength" : 5076,
            "byteOffset" : 41324
        },
        {
            "buffer" : 0,
            "byteLength" : 3384,
            "byteOffset" : 46400
        },
        {
            "buffer" : 0,
            "byteLength" : 1812,
            "byteOffset" : 49784
        },
        {
            "buffer" : 0,
            "byteLength" : 644,
            "byteOffset" : 51596
        },
        {
            "buffer" : 0,
            "byteLength" : 1932,
            "byteOffset" : 52240
        },
        {
            "buffer" : 0,
            "byteLength" : 2576,
            "byteOffset" : 54172
        },
        {
            "buffer" : 0,
            "byteLength" : 1932,
            "byteOffset" : 56748
        },
        {
            "buffer" : 0,
            "byteLength" : 4,
            "byteOffset" : 58680
        },
        {
            "buffer" : 0,
            "byteLength" : 12,
            "byteOffset" : 58684
        },
        {
            "buffer" : 0,
            "byteLength" : 16,
            "byteOffset" : 58696
        },
        {
            "buffer" : 0,
            "byteLength" : 12,
            "byteOffset" : 58712
        },
        {
            "buffer" : 0,
            "byteLength" : 12,
            "byteOffset" : 58724
        },
        {
            "buffer" : 0,
            "byteLength" : 16,
            "byteOffset" : 58736
        },
        {
            "buffer" : 0,
            "byteLength" : 12,
            "byteOffset" : 58752
        }
    ],
    "buffers" : [
        {
            "byteLength" : 58764,
            "uri" : "logo_foribus2.bin"
        }
    ]
}
